<?xml version="1.0" encoding="utf-8"?>
<!-- Generator: Adobe Illustrator 22.0.1, SVG Export Plug-In . SVG Version: 6.00 Build 0)  -->
<svg version="1.1" id="Layer_1" xmlns="http://www.w3.org/2000/svg" xmlns:xlink="http://www.w3.org/1999/xlink" x="0px" y="0px"
	 viewBox="0 0 42.4 41.9" style="enable-background:new 0 0 42.4 41.9;" xml:space="preserve">
<path d="M18.1,20.6c0-1.7,1.4-3,3.1-3c1.7,0.1,3,1.4,3,3.1s-1.4,3-3.1,3C19.4,23.6,18.1,22.2,18.1,20.6z M25.2,17.7
	c0.4,0,0.7,0,1.1,0c0.6,0,1-0.4,1-1c0-0.3,0-0.7,0-1c0-0.5-0.3-0.9-0.7-1c-0.3-0.1-0.6-0.1-0.9-0.1c-0.2,0-0.3,0-0.5,0
	c-0.6,0-1,0.4-1,1c0,0.4,0,0.7,0,1.1C24.2,17.2,24.6,17.7,25.2,17.7z M26,19.5c0.4,2.3-0.3,4.1-2.2,5.3c-1.7,1.1-3.5,1-5.2-0.1
	c-1.9-1.2-2.5-3-2.1-5.2c-0.4,0-0.9,0-1.3,0c0,0.1,0,0.1,0,0.2c0,2,0,4,0,6c0,0.6,0.4,1.1,1.1,1.1c3.3,0,6.6,0,10,0
	c0.7,0,1.1-0.4,1.1-1.1c0-2,0-4,0-6c-0.1-0.1-0.1-0.1-0.1-0.2C26.8,19.5,26.4,19.5,26,19.5z M37.1,20.7c0,8.8-7.1,15.9-15.9,15.9
	S5.3,29.4,5.3,20.7S12.4,4.8,21.2,4.8S37.1,11.9,37.1,20.7z M29.1,15.5c-0.1-0.3-0.2-0.6-0.3-1c-0.5-0.9-1.3-1.5-2.4-1.7h-0.1
	c-3.4,0-6.9,0-10.3,0c-0.3,0.1-0.7,0.1-1,0.3c-0.9,0.5-1.5,1.3-1.7,2.4v0.1c0,3.4,0,6.9,0,10.3c0.1,0.3,0.1,0.7,0.3,1
	c0.5,0.9,1.3,1.5,2.4,1.7h0.1c3.4,0,6.9,0,10.3,0c0.3-0.1,0.7-0.1,1-0.3c0.9-0.5,1.5-1.3,1.7-2.4v-0.1
	C29.1,22.4,29.1,18.9,29.1,15.5z"/>
</svg>
