<?xml version="1.0" encoding="utf-8"?>
<!-- Generator: Adobe Illustrator 22.0.1, SVG Export Plug-In . SVG Version: 6.00 Build 0)  -->
<svg version="1.1" id="Layer_1" xmlns="http://www.w3.org/2000/svg" xmlns:xlink="http://www.w3.org/1999/xlink" x="0px" y="0px"
	 viewBox="0 0 42.4 41.9" style="enable-background:new 0 0 42.4 41.9;" xml:space="preserve">
<path d="M37.1,21c0,8.1-5.9,14.6-13.7,15.6c0-3.8,0-7.8,0-11.6c-0.1-0.2-0.1-0.3-0.1-0.4c1.2,0,2.5,0,3.7,0c0.2-1.5,0.3-3.1,0.5-4.6
	c-0.1,0-0.2,0-0.3,0c-1.2,0-2.5,0-3.7,0c-0.1,0-0.2,0-0.2-0.1c0-1,0-2,0.1-2.9c0-0.5,0.4-0.9,0.8-1c0.3,0,0.5-0.1,0.8-0.1
	c0.8,0,1.5,0,2.3,0c0.2,0,0.2,0,0.2-0.2c0-1.4,0-2.8,0-4.2c0-0.1,0-0.2,0-0.3c-1.5,0-3,0-4.5,0c-0.1,0-0.2,0-0.2,0.1
	c-0.5,0.1-1.1,0.2-1.6,0.4c-1,0.3-1.7,0.9-2.1,1.8c-0.4,0.8-0.6,1.7-0.6,2.6c0,1.2,0,2.5-0.1,3.8c0,0.2,0,0.3-0.3,0.3
	c-1,0-1.9,0-2.9,0c-0.2,0-0.2,0-0.2,0.2c0,1.4,0,2.8,0,4.2c0,0.1,0,0.1,0,0.2c1.1,0,2.2,0,3.4,0c0,0.1,0,0.2,0,0.3
	c0,3.8,0,7.7,0,11.4c-7.4-1.3-13-7.8-13-15.6c0-8.8,7.1-15.8,15.8-15.8C30,5.1,37.1,12.2,37.1,21z"/>
</svg>
