<?xml version="1.0" encoding="utf-8"?>
<!-- Generator: Adobe Illustrator 22.0.1, SVG Export Plug-In . SVG Version: 6.00 Build 0)  -->
<svg version="1.1" id="Layer_1" xmlns="http://www.w3.org/2000/svg" xmlns:xlink="http://www.w3.org/1999/xlink" x="0px" y="0px"
	 viewBox="0 0 42.4 41.9" style="enable-background:new 0 0 42.4 41.9;" xml:space="preserve">
<path d="M21.2,5.5c-8.6,0-15.5,7-15.5,15.5s6.9,15.5,15.5,15.5c8.6,0,15.5-6.9,15.5-15.5C36.7,12.4,29.8,5.5,21.2,5.5z M28.1,17.2
	c-0.3,0.3-0.4,0.5-0.4,0.9c-0.2,3.4-1.6,6.1-4.6,7.9c-1.3,0.8-2.8,1.1-4.3,1.2c-1.7,0.1-3.3-0.3-4.8-1.2c-0.4,0.1-0.4,0.1-0.5,0
	c1.7,0.1,3.2-0.3,4.5-1.3c-0.6-0.3-1.2-0.4-1.7-0.8c-0.6-0.3-0.9-0.8-1.1-1.5c0.4,0,0.9-0.1,1.3-0.1v-0.1c-1.5-0.5-2.3-1.5-2.5-3.1
	c0.3,0.1,0.5,0.2,0.7,0.2c0.2,0.1,0.4,0.1,0.7,0.1c-1.4-1.2-1.7-2.6-1-4.3c1.8,2.1,4,3.2,6.7,3.4c0-0.4,0-0.7,0-1.1
	c0-1.5,1.5-2.9,3-2.9c0.9,0,1.7,0.2,2.4,0.8c0.1,0.1,0.3,0.1,0.5,0.1c0.6-0.2,1.1-0.4,1.7-0.6c-0.2,0.7-0.7,1.1-1.2,1.5
	c0,0,0,0.1,0.1,0.1c0.5-0.1,1-0.2,1.5-0.4c0,0,0,0,0.1,0.1C28.8,16.5,28.5,16.9,28.1,17.2z"/>
</svg>
