<svg xmlns="http://www.w3.org/2000/svg" viewBox="0 0 130.47 66.15"><defs></defs><title>Asset 5</title><g id="Layer_2" data-name="Layer 2"><g id="Layer_3" data-name="Layer 3"><path class="cls-1" d="M119.84,28.66c.32-.43.65-.87,1-1.3,1.3-1.67,2.4-3.13,3.34-4.45A39.32,39.32,0,0,0,130,10.75c.58-2.37.81-5.62-.34-7.12a2,2,0,0,0-1.51-.75c-1.17-.11-2.24.23-4.07,1.74a28.27,28.27,0,0,0-5.13,6,35.86,35.86,0,0,0-4.83,10.61c-.92,2.92-2,8.35-1.23,12l0,.23s-1,.74-1.7,1.25-3,1.4-4.3.37c-.9-.71-.47-2.17-.08-3a14.44,14.44,0,0,1,1-1.51v0a15.43,15.43,0,0,0,2.58-4.84,1.63,1.63,0,0,0-.88-2,2.77,2.77,0,0,0-1.17-.31c-1.14,0-1.81,1-2.56,2.25l-.29.49-.35-.45-.19-.2a3.28,3.28,0,0,0-2.36-.95,4.75,4.75,0,0,0-1.56.27c-2,.69-4,3.61-6.14,3.59a1.31,1.31,0,0,1-1.17-.95,5.66,5.66,0,0,1,.58-3.73.75.75,0,0,0,.14-.76.31.31,0,0,0-.28-.18c-.13,0-.37.17-.44.23A11.07,11.07,0,0,0,92,24.56c-1.14,1.19-5,6.2-5,6.2l-.14-1.08a3.5,3.5,0,0,0-1-2.35,2.25,2.25,0,0,0-1.35-.41,5.62,5.62,0,0,0-2.62.8l-2,1.14-.12.06c-2.63,1.56-3.66,2.14-3.93,2.23h0l-.13,0-.32,0-.09-.32-.18-.56L75,30.08c-.57-1.75-1.69-3-2.66-3a2.14,2.14,0,0,0-1.28.43l-.11.08H69.83c-3.16,0-6.07,2-9,6.62-3.37,5.32-1.63,9.73-1.33,10.32l.09.19-.1.18c-.35.63-1.64,2.72-3.62,2.71-3.69,0-3.8-5.17-3.85-7.38,0-1,.5-4.79.5-4.79a53.18,53.18,0,0,0,9.84-8.73,76.26,76.26,0,0,0,9.3-14.3c1.29-3,2-7,.67-9.16a2.13,2.13,0,0,0-1.9-1,2.83,2.83,0,0,0-.58,0h-.09c-4.76.8-9.59,7-14.1,13.59C50.7,23.14,48.15,34.11,48,35.34c-.22,1.54-1.88,2.15-3.06,2.39l-.06-.36c0-.19-.08-.42-.14-.69l-.06-.32c-.46-2.15-1.63-3.8-2.79-3.93a2.61,2.61,0,0,0-1.57.35l-.14.08-1.36-.15c-3.76-.41-7.47,1.6-11.55,6.74-4.68,5.89-3.16,11.35-2.89,12.1l0,.1a13.43,13.43,0,0,1-5.18,3.11,7.53,7.53,0,0,1-2.19.3c-6.11,0-7.78-5.69-8.61-11.23a41.75,41.75,0,0,1,4.53-25.11C16.09,12.6,21.66,4.2,29.45,3.3l.83,0a9.51,9.51,0,0,1,6.41,2.44,7.91,7.91,0,0,1,2.66,5.89,8.39,8.39,0,0,1-5.76,7.71l-.71.26.2-.73a4.13,4.13,0,0,0,.16-1.17,4.52,4.52,0,0,0-4.5-4.52A4.74,4.74,0,0,0,25.3,14.7a4.56,4.56,0,0,0-.22,5.63,5.71,5.71,0,0,0,1.2,1.21c4.59,3.16,10,.74,11.12.18a11.93,11.93,0,0,0,3.21-2.4A14.23,14.23,0,0,0,42,17.57a10.32,10.32,0,0,0,1-1.94,11.8,11.8,0,0,0,.77-4.15A11.59,11.59,0,0,0,32.08,0c-.47,0-8-.74-15.45,5.68C7.21,13.84,1.56,24,.25,35.05c-.92,7.83.71,14.56,4.6,19a12.52,12.52,0,0,0,9.31,4.5,4,4,0,0,0,.47,0A18.52,18.52,0,0,0,26,54.06a7.66,7.66,0,0,0,4.72,2.31c5.88.64,9.66-2.57,12.72-9.63a19.65,19.65,0,0,0,1.43-5.87l.12-1A7.85,7.85,0,0,0,46,39.39a4.74,4.74,0,0,0,1.24-.93s0,1.6,0,2.2c0,2.37,0,7.31,3.34,9a7.46,7.46,0,0,0,3.25.76c3.33-.08,5.54-2.83,6.47-4l.25-.34.32.28A6.44,6.44,0,0,0,65.18,48c4.94,0,7.8-3,9.73-9.14a16.51,16.51,0,0,0,.67-5V33l.19-.11c1-.55,3.31-1.88,4.2-2.27a3,3,0,0,1,1.17-.3,1.31,1.31,0,0,1,1,.49c.38.46.16,1.68-.88,4.86-.91,2.81-2.93,8.74-3.13,9.18s.1.57.31.51l2.74-.85c.93-.3,1.17-.34,1.56-.78A15.78,15.78,0,0,0,84,40.09L84,40c.4-1.42.84-3,1.27-4.23.84-2.32,4.28-6.14,4.28-6.14l.82.88a1.63,1.63,0,0,0,1.26.46c.62,0,2-.17,2-.17l-.34.58a16.06,16.06,0,0,0-2.18,7,3.67,3.67,0,0,0,3.93,3.91,6.16,6.16,0,0,0,.75-.05c1.86-.23,3.88-1.67,6-4.31l.48-.59s.53,1.74.71,2.07c.42.75.86,1,1.9,1a7.52,7.52,0,0,0,2.61-.59A39.53,39.53,0,0,0,113,35.69l.4-.33.21.47a7.53,7.53,0,0,0,7,4.48,8.75,8.75,0,0,0,1.34-.11h0a8.54,8.54,0,0,0,3.55-1.44,12,12,0,0,0,2.19-1.91,9.46,9.46,0,0,0,2.08-3.94c0-.34-.72-.76-1.1-.62-.54.21-1.16,2.84-3.23,4.07a8.59,8.59,0,0,1-3.74,1.24,5.67,5.67,0,0,1-1.74-.29,4.91,4.91,0,0,1-2.47-2.61,3.86,3.86,0,0,1-.48-2.56C117.1,31.79,119.84,28.66,119.84,28.66Zm-2.77-.18a34,34,0,0,1,1-7,44.8,44.8,0,0,1,4.19-11c1.48-2.72,4.3-6.6,5.18-6.32.72.23.1,2.84-.09,3.57a59.68,59.68,0,0,1-5.18,14.14C120.58,24.82,117,30,117,30S117.06,28.72,117.07,28.48ZM53.2,32.26a53.59,53.59,0,0,1,1.93-6.36,80.62,80.62,0,0,1,7.15-14.81,31.82,31.82,0,0,1,5.35-6.51,3,3,0,0,1,1.5-.75c.38,0,.62.26.71.76.29,1.43-1.36,5.71-1.45,5.91a99.76,99.76,0,0,1-7.54,14.62A28.91,28.91,0,0,1,53.08,33ZM40.93,43.7C39.69,49.11,36.8,53.06,34.51,54A4.92,4.92,0,0,1,30,53.7c-1.8-1.43-1.78-4.64-1.62-6.43a20.3,20.3,0,0,1,2.36-7v0c3.66-5.46,6.36-4.61,6.36-4.61l.06.44a3.33,3.33,0,0,1,0,.37v0a11.64,11.64,0,0,0,.3,1.65,3.63,3.63,0,0,0,2.39,2.73l.31.09a1.13,1.13,0,0,1,.55.26C41.21,41.61,41.22,42.4,40.93,43.7Zm32.91-8.36c-.56,4.61-2.61,8.15-4.44,9.09a4.08,4.08,0,0,1-3.79.19c-1.63-1-1.9-3.7-1.91-5.2a16.87,16.87,0,0,1,1.34-6v0c1.83-3.63,3.87-4.26,4.48-4.32h0l.36-.07.09.36c0,.08,0,.2.07.31v0A9.28,9.28,0,0,0,70.49,31a3,3,0,0,0,2.23,2.05l.26,0a1,1,0,0,1,.49.17C73.89,33.57,74,34.23,73.84,35.34Zm29.89-3.9c-.08.55-1,5.12-4.86,6.37A5.28,5.28,0,0,1,98,38a3.72,3.72,0,0,1-.64.06,1.77,1.77,0,0,1-1.52-.68c-.65-.9-.6-2.78.16-5.14,1.42-4.45,4.18-5.12,4.66-5.12a1.26,1.26,0,0,1,1.07.45,3,3,0,0,1,.69,1.71,1.53,1.53,0,0,0,.8,1.35,5.51,5.51,0,0,0,.59.25A4.12,4.12,0,0,1,103.73,31.44Z"/><path class="cls-1" d="M108.43,50.08c-33.93,0-64.56,13.71-64.56,13.71-4.86,2-3.91,3.15-.54,1.73S70.24,55.1,97,53.94c11.55-.51,17.8-.21,21.22.37.68.08,4,.55,4.47,2.1a2.33,2.33,0,0,1-.06,1.4A4.36,4.36,0,0,1,122,59a9.27,9.27,0,0,1-.61,1C125.76,57.68,142.09,50.08,108.43,50.08Z"/></g></g></svg>
